<?xml version="1.0" encoding="UTF-8"?>
<svg xmlns="http://www.w3.org/2000/svg" xmlns:xlink="http://www.w3.org/1999/xlink" width="240px" height="50px" viewBox="0 0 239 50" version="1.1">
<g id="surface1">
<path style=" stroke:none;fill-rule:nonzero;fill:rgb(0%,0%,0%);fill-opacity:1;" d="M 180.347656 13.53125 C 180.003906 14.21875 178.496094 18.339844 177.058594 22.664062 L 174.386719 30.5625 L 173.90625 26.785156 C 173.699219 24.726562 173.496094 21.222656 173.425781 19.09375 C 173.355469 13.460938 173.082031 13.050781 169.246094 13.050781 L 165.957031 13.050781 L 160.613281 20.605469 C 157.597656 24.726562 154.992188 28.089844 154.71875 28.160156 C 154.378906 28.160156 154.171875 27.542969 154.171875 26.855469 C 154.171875 26.167969 153.691406 25.34375 153.074219 25.136719 C 152.253906 24.792969 152.527344 24.246094 154.445312 22.390625 C 156.160156 20.808594 156.914062 19.503906 156.914062 18.132812 C 156.914062 14.972656 154.992188 14.21875 148.414062 14.765625 C 139.234375 15.453125 139.441406 15.382812 137.863281 19.78125 C 137.042969 21.910156 136.21875 24.589844 135.945312 25.6875 C 135.535156 27.472656 135.601562 27.542969 136.972656 26.855469 C 137.726562 26.375 138.410156 26.234375 138.410156 26.375 C 138.410156 26.578125 137.589844 27.199219 136.492188 27.746094 C 135.121094 28.433594 134.300781 29.738281 133.410156 32.625 C 132.722656 34.820312 132.3125 36.675781 132.449219 36.8125 C 132.929688 37.292969 146.496094 35.507812 148.554688 34.617188 C 149.785156 34.132812 150.609375 33.996094 150.402344 34.339844 C 150.128906 34.753906 151.429688 35.027344 153.484375 35.027344 C 156.5 35.027344 157.253906 34.753906 158.417969 33.308594 C 159.515625 31.9375 160.339844 31.59375 163.078125 31.59375 C 165.820312 31.59375 166.4375 31.800781 166.710938 33.035156 C 167.054688 34.410156 167.394531 34.410156 173.496094 33.996094 C 176.988281 33.722656 180.070312 33.378906 180.277344 33.242188 C 180.484375 33.105469 181.238281 31.179688 181.921875 28.847656 C 182.609375 26.578125 183.359375 24.726562 183.566406 24.726562 C 183.773438 24.726562 184.867188 26.785156 185.964844 29.257812 L 187.953125 33.722656 L 194.117188 33.308594 L 197.40625 23.695312 C 199.257812 18.40625 200.765625 13.667969 200.765625 13.1875 C 200.765625 12.636719 199.667969 12.363281 197.476562 12.363281 L 194.117188 12.363281 L 192.886719 16.484375 C 192.199219 18.75 191.445312 20.605469 191.171875 20.605469 C 190.96875 20.605469 189.871094 18.75 188.773438 16.484375 C 186.855469 12.363281 186.789062 12.363281 183.910156 12.363281 C 181.785156 12.363281 180.757812 12.707031 180.347656 13.53125 Z M 149.101562 20.605469 C 149.03125 22.320312 147.59375 23.351562 145.125 23.351562 C 142.386719 23.351562 143.34375 21.015625 146.496094 20.125 C 147.867188 19.710938 149.101562 19.367188 149.101562 19.300781 C 149.167969 19.300781 149.167969 19.847656 149.101562 20.605469 Z M 166.300781 26.578125 C 166.09375 26.71875 165.273438 26.785156 164.519531 26.648438 L 163.078125 26.441406 L 164.585938 24.246094 L 166.164062 22.046875 L 166.367188 24.105469 C 166.503906 25.273438 166.4375 26.375 166.300781 26.578125 Z M 147.183594 28.640625 C 147.046875 29.394531 145.949219 30.152344 144.371094 30.496094 C 141.496094 31.25 140.878906 30.90625 141.496094 28.914062 C 141.835938 27.746094 142.523438 27.472656 144.648438 27.472656 C 146.910156 27.472656 147.386719 27.679688 147.183594 28.640625 Z M 147.183594 28.640625 "/>
<path style=" stroke:none;fill-rule:nonzero;fill:rgb(0%,0%,0%);fill-opacity:1;" d="M 199.121094 22.117188 C 197.269531 27.542969 195.625 32.347656 195.421875 32.828125 C 195.214844 33.515625 195.96875 33.652344 198.777344 33.515625 C 202.136719 33.308594 202.410156 33.171875 202.957031 31.25 C 203.230469 30.082031 204.054688 28.847656 204.808594 28.367188 C 206.042969 27.609375 206.179688 27.816406 206.933594 30.90625 C 207.617188 33.722656 208.027344 34.339844 209.195312 34.339844 C 210.015625 34.339844 211.867188 34.546875 213.375 34.820312 C 215.839844 35.234375 215.976562 35.164062 215.496094 33.652344 C 215.222656 32.828125 214.46875 29.875 213.851562 27.199219 L 212.6875 22.183594 L 217.414062 18.199219 C 221.597656 14.765625 222.074219 14.078125 220.910156 13.667969 C 217.414062 12.292969 215.085938 12.980469 210.976562 16.550781 C 208.714844 18.476562 206.933594 19.917969 206.933594 19.710938 C 206.933594 19.574219 207.410156 18.0625 207.960938 16.484375 C 208.507812 14.902344 208.988281 13.324219 208.988281 12.980469 C 208.988281 12.636719 207.480469 12.363281 205.699219 12.363281 L 202.410156 12.363281 Z M 199.121094 22.117188 "/>
<path style=" stroke:none;fill-rule:nonzero;fill:rgb(0%,0%,0%);fill-opacity:1;" d="M 133.273438 16.277344 C 130.875 16.691406 130.53125 17.101562 129.160156 21.773438 C 128.542969 23.765625 127.929688 25.410156 127.789062 25.410156 C 127.585938 25.410156 126.488281 23.558594 125.324219 21.222656 C 123.335938 17.171875 123.132812 17.03125 121.144531 17.445312 C 119.980469 17.652344 118.472656 17.855469 117.785156 17.855469 C 116.894531 17.855469 116.210938 18.886719 115.390625 21.632812 L 114.15625 25.410156 L 113.265625 23.28125 C 111.484375 18.957031 108.195312 17.925781 102.027344 19.644531 C 98.738281 20.605469 96.957031 21.632812 94.421875 24.039062 C 92.230469 26.167969 91.269531 26.785156 91.613281 25.824219 C 91.886719 25 92.089844 23.695312 92.160156 22.800781 C 92.160156 21.976562 92.367188 21.292969 92.707031 21.292969 C 92.984375 21.292969 93.1875 20.949219 93.1875 20.535156 C 93.1875 20.125 92.707031 19.917969 92.160156 20.125 C 91.613281 20.398438 87.226562 20.742188 82.429688 20.949219 C 67.765625 21.566406 66.464844 21.839844 65.710938 23.832031 L 65.027344 25.617188 L 63.449219 24.105469 C 61.257812 22.046875 58.175781 21.292969 54.746094 22.046875 C 50.910156 22.941406 49.472656 23.765625 46.386719 26.71875 L 43.785156 29.191406 L 44.882812 26.167969 C 45.429688 24.519531 45.910156 22.941406 45.910156 22.597656 C 45.910156 22.253906 44.332031 21.976562 42.347656 21.976562 C 38.988281 21.976562 38.714844 22.117188 35.5625 25.550781 C 32.066406 29.464844 32.203125 29.53125 30.835938 24.175781 L 30.082031 21.222656 L 26.585938 21.429688 L 23.089844 21.632812 L 19.734375 31.523438 C 15.964844 42.308594 16.035156 42.789062 20.488281 42.445312 C 22.75 42.238281 22.953125 42.03125 24.257812 37.980469 C 25.078125 35.644531 25.902344 33.585938 26.105469 33.308594 C 26.378906 33.105469 26.929688 34.476562 27.410156 36.402344 L 28.230469 39.972656 L 31.589844 36.675781 C 33.4375 34.820312 34.945312 33.722656 34.945312 34.066406 C 34.945312 34.476562 34.328125 36.605469 33.574219 38.804688 C 32.820312 41.003906 32.203125 42.925781 32.203125 43.0625 C 32.203125 43.132812 33.710938 43.269531 35.5625 43.269531 L 38.917969 43.269531 L 40.085938 39.765625 L 41.25 36.332031 L 42.621094 39.148438 C 45.222656 44.367188 49.402344 45.191406 56.117188 41.828125 C 59.75 39.972656 63.792969 36.265625 63.175781 35.300781 C 63.109375 35.097656 63.449219 34.476562 64.066406 33.929688 C 64.613281 33.308594 65.300781 31.660156 65.503906 30.21875 C 65.847656 28.023438 66.257812 27.542969 68.039062 27.199219 C 69.136719 26.992188 70.234375 26.855469 70.371094 26.992188 C 70.507812 27.128906 69.480469 30.496094 68.179688 34.546875 C 66.875 38.53125 65.78125 41.964844 65.78125 42.171875 C 65.78125 42.375 67.289062 42.582031 69.207031 42.582031 C 72.289062 42.582031 72.632812 42.445312 73.042969 40.796875 C 73.316406 39.699219 73.179688 38.804688 72.699219 38.460938 C 72.082031 38.117188 72.222656 37.84375 73.113281 37.636719 C 73.933594 37.429688 74.824219 35.714844 75.921875 32.417969 C 77.152344 28.570312 77.839844 27.402344 79.003906 27.199219 C 81.335938 26.71875 84.28125 26.304688 84.28125 26.441406 C 84.28125 26.441406 83.320312 29.257812 82.226562 32.691406 C 79.074219 41.894531 79.074219 41.621094 82.636719 41.550781 C 86.0625 41.550781 86.679688 41.003906 87.773438 36.539062 C 88.734375 33.035156 89.761719 32.144531 89.761719 34.890625 C 89.761719 36.125 90.445312 37.570312 91.542969 38.734375 C 95.105469 42.238281 102.988281 40.523438 108.8125 34.820312 C 112.03125 31.660156 112.101562 31.660156 110.660156 35.714844 C 110.113281 37.363281 109.769531 38.804688 109.976562 39.011719 C 110.179688 39.21875 111.757812 39.078125 113.605469 38.734375 C 116.757812 38.117188 116.828125 38.050781 117.992188 34.410156 C 118.679688 32.347656 119.5 30.355469 119.773438 30.082031 C 120.117188 29.738281 120.9375 30.699219 121.625 32.28125 C 122.308594 33.792969 123.132812 35.027344 123.472656 35.027344 C 123.75 35.027344 124.023438 35.441406 124.023438 35.988281 C 124.023438 37.5 124.914062 37.773438 128.132812 37.226562 C 130.738281 36.8125 131.078125 36.46875 131.972656 33.996094 C 132.519531 32.484375 132.792969 30.839844 132.585938 30.355469 C 132.449219 29.945312 132.585938 29.53125 132.863281 29.53125 C 133.410156 29.53125 137.726562 17.71875 137.726562 16.277344 C 137.726562 15.796875 136.835938 15.796875 133.273438 16.277344 Z M 90.925781 22.390625 C 90.722656 22.597656 90.105469 22.664062 89.625 22.457031 C 89.078125 22.253906 89.28125 22.046875 90.035156 22.046875 C 90.789062 21.976562 91.199219 22.183594 90.925781 22.390625 Z M 82.019531 24.449219 C 81.8125 24.65625 81.195312 24.726562 80.71875 24.519531 C 80.167969 24.3125 80.375 24.105469 81.128906 24.105469 C 81.882812 24.039062 82.292969 24.246094 82.019531 24.449219 Z M 79.277344 25.136719 C 79.074219 25.34375 78.457031 25.410156 77.976562 25.207031 C 77.429688 25 77.632812 24.792969 78.386719 24.792969 C 79.140625 24.726562 79.550781 24.929688 79.277344 25.136719 Z M 105.382812 25.550781 C 106.890625 27.058594 106.277344 29.601562 103.808594 32.074219 C 101.273438 34.617188 98.394531 34.957031 97.09375 32.898438 C 96.066406 31.25 97.777344 27.609375 100.3125 26.03125 C 102.78125 24.519531 104.21875 24.382812 105.382812 25.550781 Z M 57.625 29.050781 C 59.820312 30.769531 56.804688 36.195312 52.964844 37.363281 C 51.9375 37.707031 51.046875 37.429688 50.089844 36.46875 C 48.921875 35.300781 48.785156 34.753906 49.402344 33.171875 C 51.046875 28.847656 54.886719 26.921875 57.625 29.050781 Z M 61.464844 29.257812 C 61.257812 29.464844 60.640625 29.53125 60.160156 29.328125 C 59.613281 29.121094 59.820312 28.914062 60.570312 28.914062 C 61.324219 28.847656 61.738281 29.050781 61.464844 29.257812 Z M 61.667969 33.652344 C 62.214844 33.996094 62.421875 34.339844 62.011719 34.339844 C 61.667969 34.339844 60.847656 33.996094 60.296875 33.652344 C 59.75 33.308594 59.613281 32.96875 59.957031 32.96875 C 60.367188 32.96875 61.121094 33.308594 61.667969 33.652344 Z M 127.449219 33.308594 C 127.449219 33.449219 126.761719 33.929688 125.941406 34.339844 C 124.433594 35.097656 124.433594 35.027344 125.667969 34.066406 C 127.105469 32.898438 127.449219 32.761719 127.449219 33.308594 Z M 127.449219 33.308594 "/>
<path style=" stroke:none;fill-rule:nonzero;fill:rgb(0%,0%,0%);fill-opacity:1;" d="M 218.785156 32.761719 C 219.539062 32.96875 220.019531 33.792969 220.019531 35.234375 L 220.15625 37.429688 L 220.429688 35.371094 C 220.636719 34.273438 221.117188 33.105469 221.527344 32.828125 C 222.007812 32.554688 221.253906 32.347656 219.953125 32.347656 C 218.648438 32.417969 218.101562 32.554688 218.785156 32.761719 Z M 218.785156 32.761719 "/>
<path style=" stroke:none;fill-rule:nonzero;fill:rgb(0%,0%,0%);fill-opacity:1;" d="M 222.761719 34.820312 C 222.828125 37.15625 222.898438 37.226562 223.378906 35.714844 C 224.132812 33.242188 224.132812 32.28125 223.378906 32.28125 C 223.035156 32.28125 222.691406 33.449219 222.761719 34.820312 Z M 222.761719 34.820312 "/>
<path style=" stroke:none;fill-rule:nonzero;fill:rgb(0%,0%,0%);fill-opacity:1;" d="M 225.5 33.449219 C 225.5 34.132812 225.777344 35.300781 226.117188 36.058594 C 226.597656 37.15625 226.734375 36.949219 226.734375 34.820312 C 226.804688 33.449219 226.527344 32.28125 226.117188 32.28125 C 225.777344 32.28125 225.433594 32.828125 225.5 33.449219 Z M 225.5 33.449219 "/>
<path style=" stroke:none;fill-rule:nonzero;fill:rgb(0%,0%,0%);fill-opacity:1;" d="M 224.0625 35.644531 C 224.0625 36.46875 224.40625 37.089844 224.746094 37.089844 C 225.160156 37.089844 225.433594 36.675781 225.433594 36.125 C 225.433594 35.578125 225.160156 34.890625 224.746094 34.683594 C 224.40625 34.476562 224.0625 34.890625 224.0625 35.644531 Z M 224.0625 35.644531 "/>
</g>
</svg>
